<?xml version="1.0" standalone="no"?>
<!DOCTYPE svg PUBLIC "-//W3C//DTD SVG 20010904//EN"
 "http://www.w3.org/TR/2001/REC-SVG-20010904/DTD/svg10.dtd">
<svg version="1.0" xmlns="http://www.w3.org/2000/svg"
 width="304.000000pt" height="142.000000pt" viewBox="0 0 304.000000 142.000000"
 preserveAspectRatio="xMidYMid meet">

<g transform="translate(0.000000,142.000000) scale(0.100000,-0.100000)"
fill="#000000" stroke="none">
<path d="M1120 665 l0 -295 116 0 115 0 -3 28 c-3 26 -5 27 -75 30 l-73 3 0
109 0 110 60 0 c57 0 60 1 60 25 0 24 -3 25 -60 25 l-60 0 0 100 0 100 70 0
70 0 0 30 0 30 -110 0 -110 0 0 -295z"/>
<path d="M1740 665 l0 -295 110 0 110 0 0 30 0 30 -75 0 -76 0 3 108 3 107 58
3 c53 3 57 5 57 27 0 24 -3 25 -60 25 l-60 0 0 100 0 100 75 0 75 0 0 30 0 30
-110 0 -110 0 0 -295z"/>
<path d="M2030 665 l0 -295 35 0 35 0 0 295 0 295 -35 0 -35 0 0 -295z"/>
<path d="M2820 890 c0 -39 1 -40 35 -40 34 0 35 1 35 40 0 39 -1 40 -35 40
-34 0 -35 -1 -35 -40z"/>
<path d="M1410 599 c0 -112 4 -198 10 -210 14 -26 75 -25 118 1 32 20 32 20
32 0 0 -16 7 -20 35 -20 l35 0 0 210 0 210 -35 0 -35 0 0 -170 0 -170 -26 -17
c-19 -12 -30 -14 -43 -6 -14 9 -16 35 -19 187 l-2 176 -35 0 -35 0 0 -191z"/>
<path d="M2227 770 c-35 -28 -47 -76 -47 -190 0 -165 27 -210 125 -210 43 0
57 5 77 25 23 23 38 63 38 101 0 9 -12 14 -33 14 -31 0 -34 -3 -43 -42 -7 -36
-13 -44 -35 -46 -37 -4 -51 18 -57 93 l-5 65 88 0 88 0 -6 74 c-6 80 -18 109
-54 125 -40 18 -107 13 -136 -9z m102 -39 c7 -5 16 -32 19 -60 l5 -51 -53 0
-52 0 7 48 c10 67 34 88 74 63z"/>
<path d="M2543 778 c-53 -25 -72 -161 -33 -226 l20 -33 -20 -26 c-25 -32 -26
-69 -3 -82 16 -8 15 -12 -10 -35 -36 -33 -34 -80 3 -107 53 -39 176 -33 221
12 29 29 26 103 -5 134 -22 22 -44 28 -136 37 -17 2 -25 9 -25 23 0 16 8 21
35 23 94 8 125 48 123 159 -1 71 -1 72 28 82 31 11 34 17 19 41 -8 12 -13 11
-39 -8 l-31 -22 -20 20 c-22 22 -89 27 -127 8z m96 -52 c7 -9 11 -42 9 -87 -3
-71 -4 -74 -32 -84 -40 -14 -66 20 -66 85 0 72 13 100 49 100 15 0 34 -6 40
-14z m29 -352 c46 -32 15 -74 -54 -74 -77 0 -105 30 -67 72 20 23 90 24 121 2z"/>
<path d="M2820 580 l0 -210 35 0 35 0 0 210 0 210 -35 0 -35 0 0 -210z"/>
</g>
</svg>
